<?xml version="1.0" standalone="no"?>
<!DOCTYPE svg PUBLIC "-//W3C//DTD SVG 20010904//EN"
 "http://www.w3.org/TR/2001/REC-SVG-20010904/DTD/svg10.dtd">
<svg version="1.0" xmlns="http://www.w3.org/2000/svg"
 width="700.000000pt" height="700.000000pt" viewBox="0 0 700.000000 700.000000"
 preserveAspectRatio="xMidYMid meet">
<metadata>
Created by potrace 1.14, written by Peter Selinger 2001-2017
</metadata>
<g transform="translate(0.000000,700.000000) scale(0.100000,-0.100000)"
fill="#000000" stroke="none">
<path d="M3160 6980 c-226 -34 -435 -90 -617 -166 -102 -42 -296 -138 -335
-165 -14 -11 -29 -19 -32 -19 -12 0 -204 -135 -292 -206 -103 -83 -265 -240
-339 -329 -28 -33 -54 -65 -60 -71 -5 -6 -19 -23 -30 -39 -11 -15 -30 -39 -41
-54 -32 -39 -128 -189 -169 -262 -178 -321 -289 -680 -322 -1039 -16 -168 -7
-504 17 -680 5 -36 12 -85 15 -109 3 -23 7 -46 9 -50 2 -3 7 -28 10 -56 24
-175 145 -583 251 -845 53 -129 219 -473 286 -590 411 -726 1015 -1449 1719
-2060 192 -167 284 -240 301 -240 15 0 249 191 393 322 837 758 1485 1609
1849 2428 126 283 250 661 293 888 6 33 12 64 17 87 3 11 10 56 17 100 6 44
13 91 15 105 40 260 38 649 -4 885 -6 33 -13 76 -16 95 -3 19 -8 43 -11 52 -3
9 -7 25 -9 37 -23 122 -125 402 -202 555 -228 456 -586 840 -1018 1093 -95 55
-232 123 -335 166 -87 35 -287 102 -331 110 -13 3 -42 10 -64 15 -22 6 -53 14
-70 16 -16 3 -41 8 -55 11 -126 25 -242 33 -480 33 -182 0 -274 -5 -360 -18z
m558 -1450 c31 -5 67 -12 79 -14 12 -3 62 -18 111 -35 163 -56 302 -142 427
-265 237 -233 357 -529 349 -860 -12 -469 -324 -899 -766 -1054 -209 -73 -438
-87 -650 -37 -193 45 -373 140 -523 276 -56 52 -175 191 -175 205 0 4 -6 15
-14 23 -31 36 -88 155 -120 252 -70 210 -81 442 -30 642 109 427 438 753 859
853 44 10 78 16 125 21 30 3 56 7 58 8 7 6 218 -5 270 -15z"/>
</g>
</svg>
